<?xml version="1.0" standalone="no"?>
<!DOCTYPE svg PUBLIC "-//W3C//DTD SVG 20010904//EN"
 "http://www.w3.org/TR/2001/REC-SVG-20010904/DTD/svg10.dtd">
<svg version="1.0" xmlns="http://www.w3.org/2000/svg"
 width="1003.000000pt" height="1003.000000pt" viewBox="0 0 1003.000000 1003.000000"
 preserveAspectRatio="xMidYMid meet">
<metadata>
Created by potrace 1.14, written by Peter Selinger 2001-2017
</metadata>
<g transform="translate(0.000000,1003.000000) scale(0.100000,-0.100000)"
fill="#000000" stroke="none">
<path d="M7887 10024 c-1 -1 -38 -5 -82 -8 -77 -5 -142 -12 -195 -20 -14 -3
-47 -7 -75 -11 -27 -4 -52 -8 -55 -10 -3 -2 -23 -6 -45 -9 -22 -4 -103 -22
-180 -42 -77 -19 -148 -37 -159 -39 -10 -2 -44 -12 -75 -21 -61 -18 -157 -44
-181 -49 -33 -7 -247 -89 -319 -122 -125 -58 -213 -102 -276 -139 -33 -19 -68
-38 -77 -41 -10 -3 -18 -9 -18 -14 0 -5 -5 -9 -11 -9 -6 0 -31 -13 -56 -30
-24 -16 -46 -30 -48 -30 -2 0 -34 -21 -70 -47 -37 -27 -84 -59 -105 -73 -57
-36 -123 -83 -138 -97 -7 -7 -17 -13 -21 -13 -4 0 -21 -11 -37 -25 -16 -14
-32 -25 -36 -25 -4 0 -13 -6 -20 -13 -7 -7 -34 -26 -60 -42 -27 -17 -48 -33
-48 -36 0 -4 -13 -12 -30 -19 -16 -7 -30 -16 -30 -21 0 -5 -7 -9 -15 -9 -8 0
-15 -4 -15 -9 0 -5 -8 -12 -17 -15 -10 -3 -29 -16 -43 -29 -14 -12 -41 -34
-60 -47 -19 -13 -40 -29 -46 -35 -6 -5 -23 -19 -38 -30 -31 -23 -216 -164
-261 -200 -16 -13 -110 -84 -207 -159 -98 -75 -188 -145 -200 -155 -13 -10
-59 -48 -103 -83 -44 -34 -89 -70 -100 -79 -155 -128 -211 -174 -215 -178 -3
-4 -34 -31 -70 -61 -36 -30 -74 -64 -86 -75 -38 -36 -84 -75 -88 -75 -3 0 -60
35 -128 78 -68 42 -132 82 -143 89 -314 189 -303 183 -425 234 -52 22 -108 46
-125 53 -60 27 -341 124 -390 136 -65 15 -62 15 -195 50 -63 16 -133 32 -155
35 -22 3 -60 8 -85 12 -147 21 -332 -3 -440 -57 -264 -131 -486 -341 -663
-628 -82 -133 -227 -425 -227 -457 0 -8 -4 -16 -8 -19 -9 -5 -33 -98 -38 -146
-6 -49 -6 -167 0 -196 3 -16 8 -44 11 -63 19 -116 145 -207 300 -216 71 -4
178 28 321 96 100 49 270 144 297 167 9 8 17 11 17 6 0 -5 4 -4 8 1 6 10 205
137 275 177 29 17 31 16 76 -9 44 -26 89 -58 156 -113 60 -50 176 -173 172
-184 -2 -6 -13 -15 -25 -21 -12 -5 -22 -13 -22 -18 0 -4 -4 -5 -10 -2 -5 3
-10 2 -10 -4 0 -5 -8 -12 -18 -15 -33 -11 -225 -209 -282 -290 -8 -12 -22 -30
-32 -40 -10 -11 -18 -25 -18 -32 0 -7 -4 -14 -8 -16 -8 -3 -101 -181 -102
-193 0 -3 0 -11 0 -19 0 -7 -28 -47 -62 -88 -35 -42 -82 -111 -105 -154 -37
-70 -94 -217 -108 -277 -3 -12 -30 -119 -60 -237 -30 -118 -57 -225 -60 -237
-7 -28 -19 -29 -55 -3 -43 30 -198 105 -280 134 -83 30 -154 32 -205 7 -59
-29 -162 -157 -238 -294 -39 -69 -105 -264 -133 -392 -47 -208 -54 -264 -54
-430 0 -156 13 -263 44 -380 2 -5 6 -28 11 -50 20 -97 130 -356 188 -440 54
-80 133 -170 186 -212 93 -76 103 -82 161 -110 30 -15 81 -51 113 -80 162
-148 392 -260 637 -310 119 -24 380 -24 469 1 75 20 136 49 169 79 l22 21 37
-35 c20 -19 46 -43 58 -54 46 -43 138 -120 154 -129 9 -5 18 -12 21 -16 6 -7
130 -90 135 -90 2 0 36 -19 77 -43 207 -122 549 -252 748 -286 89 -15 142 -20
233 -20 l77 -1 -6 -77 c-10 -130 18 -235 80 -299 41 -42 141 -81 251 -97 66
-11 71 -20 50 -97 -2 -8 -6 -31 -9 -50 -3 -19 -8 -46 -11 -60 -22 -110 -41
-287 -39 -368 1 -73 28 -192 43 -192 3 0 12 -14 20 -32 8 -17 42 -59 76 -94
62 -61 112 -92 188 -112 59 -16 221 -11 296 9 170 46 350 173 486 344 22 28
43 52 47 55 18 14 146 285 141 300 -1 3 2 10 7 15 6 8 86 251 141 432 9 27 23
38 93 73 100 50 164 109 202 187 16 32 27 58 26 58 -2 0 2 13 8 29 17 45 13
153 -8 231 -47 169 -61 216 -100 313 -68 169 -69 173 -28 226 47 63 140 213
177 289 38 77 78 197 119 352 28 108 58 178 78 187 23 9 134 208 117 208 -3 0
1 12 9 28 7 15 17 47 21 72 4 25 9 56 11 70 9 54 30 268 33 346 1 6 43 38 94
72 85 55 320 238 390 304 15 14 85 73 154 130 309 253 490 404 508 423 11 11
54 49 95 85 41 36 84 74 95 85 11 12 40 36 65 55 25 19 47 37 50 40 3 3 34 30
70 60 35 30 74 64 86 75 11 11 61 56 109 100 251 228 478 478 600 660 22 33
42 62 45 65 7 7 29 43 37 60 4 8 9 17 13 20 11 9 86 152 122 235 25 57 35 93
34 126 -3 83 -77 175 -172 215 -42 17 -163 23 -229 11 -52 -9 -80 -15 -80 -17
0 -2 -12 -5 -50 -13 -144 -33 -389 -147 -770 -357 -27 -15 -122 -65 -210 -110
-164 -85 -238 -124 -455 -240 -456 -246 -633 -336 -640 -330 -3 3 -4 8 -3 12
2 4 5 45 8 90 7 115 14 179 21 202 4 11 8 33 9 50 3 27 10 63 19 101 4 14 23
61 52 125 22 48 33 60 97 100 85 52 196 160 256 248 141 208 187 514 105 701
l-20 43 83 167 c95 191 108 210 125 193 38 -38 69 9 48 73 -10 31 -9 42 8 78
10 23 54 121 98 217 130 292 201 394 344 495 105 75 189 159 299 301 70 90
167 266 173 314 2 14 6 30 9 35 5 9 5 95 1 162 -2 29 -54 88 -95 108 -44 22
-133 44 -208 51 -80 7 -159 11 -162 8z"/>
</g>
</svg>
